<svg width="53" height="53" viewBox="0 0 53 53" fill="none" xmlns="http://www.w3.org/2000/svg">
<path d="M11.7241 42.6067L11.4514 43.3193H15.8139L15.9398 42.984C16.1495 42.3972 16.527 41.3912 17.0514 40.029C17.5128 38.7925 18.0791 37.3254 18.897 35.1249C19.5262 33.4692 20.2184 31.6459 21.1412 29.1939C21.7914 27.4963 22.6303 25.2539 23.4693 23.0743C24.2453 21.0414 24.9164 19.26 25.5037 17.6672C25.9441 16.4517 26.3007 15.5086 26.5943 14.7332L27.2235 16.5774C27.7269 17.8978 28.2093 19.239 28.6917 20.5384C29.0902 21.6073 29.5096 22.7599 29.9711 24.1012C30.3276 25.1072 30.6422 26.0083 30.9358 26.8047H26.5104V30.5561H36.7455L36.4519 29.8226C35.6129 27.7269 34.7111 25.4215 33.8302 23.0114C32.8864 20.4965 32.0684 18.254 31.2924 16.1792L29.0272 9.99676L28.9643 9.8291H24.6228L24.497 10.1644C22.4416 15.4038 20.3022 20.8318 18.142 26.3227C15.8559 32.1279 13.7585 37.4512 11.7241 42.6067Z" fill="white"/>
<path d="M26.5106 36.8225H35.0468L37.4378 43.3403H41.8003L37.8153 33.071H26.5106V36.8225Z" fill="white"/>
<path d="M3.50258 3.49991H24.2874V0H0V24.2689H3.50258V3.49991Z" fill="white"/>
<path d="M28.7126 0V3.49991H49.4974V24.2689H53V0H28.7126Z" fill="white"/>
<path d="M49.4974 48.9149H28.7126V52.4149H53V28.146H49.4974V48.9149Z" fill="white"/>
<path d="M24.2874 48.9149H3.50258V28.146H0V52.4149H24.2874V48.9149Z" fill="white"/>
</svg>
